<?xml version="1.0" encoding="utf-8"?>
<!-- Generator: Adobe Illustrator 19.0.1, SVG Export Plug-In . SVG Version: 6.00 Build 0)  -->
<svg version="1.1" id="Layer_1" xmlns="http://www.w3.org/2000/svg" xmlns:xlink="http://www.w3.org/1999/xlink" x="0px" y="0px"
	 viewBox="-595 139.5 753 314" style="enable-background:new -595 139.5 753 314;" xml:space="preserve">
<style type="text/css">
	.st0{fill:#00A8E3;}
	.st1{fill:#EC008C;}
	.st2{fill:#FFD100;}
	.st3{fill:#8DC63F;}
	.st4{fill:#005A96;}
	.st5{fill:#FFFFFF;}
</style>
<g>
	<g>
		<path class="st0" d="M92.3,365.2c-8.4,0-15.2,6.8-15.2,15.2s6.8,15.2,15.2,15.2c8.4,0,15.2-6.8,15.2-15.2S100.7,365.2,92.3,365.2z
			 M92.4,388.4c-4.6,0-8.3-3.7-8.3-8.3c0-4.6,3.7-8.3,8.3-8.3c4.6,0,8.3,3.7,8.3,8.3C100.7,384.6,96.9,388.4,92.4,388.4z
			 M126.3,362.8c-2-1.7-1.4-3.1-2-5.6c-0.6-2.5-1.1-13-3.1-14.1c-2-1.1-9.3-5.6-9.3-5.6s-30.7-29.3-37.8-36.6
			c-7-7.3-20.3-7.6-20.3-7.6H-48.9c-6.5-0.6-5.6,4.5-5.6,4.5l-0.6,66.5c-1.4-0.3-2.8,1.7-2.8,1.7s-0.3,9-0.6,12.1
			c-0.3,3.1,3.9,3.4,3.9,3.4H-34c0-4.5,2-18,18.3-18c16.3,0,17.5,17.5,17.5,17.5h71.8c0.8-12.1,10.4-18,19.4-17.7
			c9,0.3,11.8,5.6,14.7,8.7c2.8,3.1,2.5,8.5,2.5,8.5s4.2,0.6,8.2,0c3.9-0.6,7.9-2.2,8.5-5.1C127.4,372.3,126.3,362.8,126.3,362.8z
			 M98.9,337.7c-2-0.3-34.4,0-34.4,0s-2.8,0.3-3.1-3.4c-0.3-3.7-0.3-18.6-0.3-18.6h21.7c0,0,3.1,1.1,5.9,4.5
			c2.8,3.4,11.8,11.8,11.8,11.8s2.3,2.8,2.3,4.2C102.9,337.7,100.9,338,98.9,337.7z M118.8,355.5c0,0-2.4-1.4-2.6-2.9
			c-0.2-1.5-0.3-8.1-0.3-8.1l4.7,0.2c0,0,2.4,7.9,2.4,10.6L118.8,355.5z"/>
	</g>
	<path class="st1" d="M-333.2,247.6c-0.3-0.4-0.6-0.8-0.8-1.2c-0.9-1.6-1.3-3.3-0.5-5c1.6-3.3,3.1-6.6,4.7-9.8
		c0.7-1.5,1.5-3,2.2-4.5c1.7-3.4,3.5-6.9,5.2-10.3c0.4-0.8,0.7-1.6,0.9-2.2c-0.4-0.9-1-1.7-1.1-2.5c-0.1-0.6,0.3-1.4,0.6-2
		c1-1.8,2.5-0.8,3.9-0.6c1.9-4.6,3.8-9.2,5.8-14c-0.6-0.3-1.1-0.6-1.7-0.8c-9-3.7-18-7.4-27.1-11.1c-0.4-0.2-0.8-0.3-1.2-0.5
		c-1.4-0.7-1.8-1.5-1.2-3c1.9-4.7,3.9-9.4,5.8-14.1c0.6-1.5,1.2-1.7,2.8-1.2c0.8,0.3,1.7,0.7,2.6,1.1c0.9-1,1.6-1.9,2.5-2.7
		c1.6-1.5,3.4-1.9,5.6-0.9c15.7,6.5,31.4,13,47.2,19.4c2.2,0.9,3.1,2.4,3.2,4.5c0.1,1.5,0,3-0.7,4.4c-0.7,1.4-1.3,3-2.1,4.3
		c-0.6,0.9-1.6,1.7-2.6,2.3c-1.2,0.8-2.5,0.9-3.8,0.3c-4.2-1.8-8.4-3.5-12.6-5.2c-11.6-4.7-23.1-9.6-34.7-14.2
		c-2.8-1.1-3.6-2.7-3.7-5.5c0-1.1,0.2-2.1,0.4-3.3c-0.3-0.2-0.7-0.4-1.3-0.8c-1.7,4-3.3,7.9-4.9,11.9c0.7,0.3,1.2,0.5,1.8,0.7
		c9,3.7,18,7.4,27.1,11.1c2.9,1.2,3.1,1.7,1.9,4.6c-1.7,4.2-3.4,8.3-5.1,12.5c-0.2,0.5-0.4,1.1-0.7,1.7c1.3,0.9,3,1.4,2.4,3.4
		c-0.5,1.8-1,2.2-3.4,2.5c-0.2,0.4-0.4,0.8-0.6,1.2c-1.1,3.4-2.2,6.7-3.2,10.1c-0.5,1.4-0.9,2.9-1.4,4.3c-0.6,1.9-1.3,3.9-2,5.8
		c-0.8,2.2-1.6,4.4-2.4,6.6c-0.8,2.4-2.5,3.5-4.9,3.8c-0.2,0-0.4,0.1-0.6,0.1C-331.6,248.2-332.4,247.9-333.2,247.6z"/>
	<path class="st2" d="M-398,181.1c0.2-0.2,0.5-0.3,0.7-0.5c8.5-6.5,17.1-13.1,25.6-19.6c0.2-0.1,0.4-0.3,0.6-0.4
		c0.1,0.1,0.2,0.2,0.3,0.4c7.6,10,15.3,20,22.9,30c0.3,0.4,0.2,0.7,0,1.1c-1.4,2.8-2.8,5.5-4,8.3c-0.6,1.3-0.8,2.7-1.1,4
		c-0.2,1.1,0,2.2,0.9,3.1c0.6,0.6,1.1,1.2,1.7,1.8c1.9,1.9,4.3,3.3,6.6,4.6c2.5,1.4,4.5,3.2,5.8,5.7c0.4,0.8,0.9,1.6,1.3,2.5
		c1.3,3.1,2.2,6.4,1.5,9.8c-0.6,3-3.1,4.9-6.1,4.5c-6-0.7-10.2-4.1-13.4-9c-1.1-1.7-1.6-3.7-2.3-5.6c-0.9-2.2-1.6-4.5-2.5-6.8
		c-0.5-1.3-1.3-2.6-2.9-3c-1.1-0.2-2.3-0.4-3.5-0.4c-3.5,0.1-6.9,0.9-10.3,2c-0.6,0.2-0.9,0.1-1.2-0.4c-6.9-9-13.8-18-20.7-27
		c-0.2-0.2-0.4-0.4-0.6-0.6C-398.4,184.1-398.2,182.6-398,181.1z M-393.9,184C-393.9,184-393.9,184-393.9,184c2.3,3,4.5,6,6.9,8.9
		c0.7,0.8,1.6,1.4,2.4,2.1c0.3,0.2,0.8,0.3,1.2,0.4c1.2,0.1,1.9-0.5,1.9-1.7c0-1-0.2-2.1-0.3-3.1c0-0.4,0-0.8,0-1.3
		c0.2-1.4,1.2-2.1,2.6-1.6c1,0.4,2,0.8,3.1,1.2c1.8,0.7,3.2-0.3,3-2.3c0-0.8-0.3-1.6-0.5-2.5c-0.3-1.4-0.8-2.8-1-4.2
		c-0.2-1.6,0.6-2.2,2-1.5c0.9,0.4,1.8,1.1,2.7,1.7c1,0.7,2,1.5,3,2.2c0.4,0.3,0.8,0.4,1.3,0.6c1.8,0.5,3.2-0.6,2.9-2.5
		c-0.1-0.9-0.5-1.9-1.1-2.7c-2.6-3.5-5.3-7-8-10.5c0-0.1-0.1-0.1-0.1-0.1C-379.2,172.7-386.5,178.4-393.9,184z M-376.4,209.9
		c8.3-6.4,16.7-12.7,25-19.1c-1.4-1.8-2.9-3.8-4.3-5.6c-8.3,6.3-16.6,12.7-25,19.1C-379.3,206.2-377.8,208.1-376.4,209.9z
		 M-342.3,224.3c-2-0.3-3.9,1.1-4.1,3.1c-0.3,2,1.2,3.9,3.1,4.1c2,0.3,3.9-1.1,4.1-3.1C-338.9,226.5-340.2,224.6-342.3,224.3z"/>
	<circle class="st3" cx="-550" cy="200.8" r="14"/>
	<circle class="st2" cx="-551.8" cy="164.9" r="10.1"/>
	<circle class="st0" cx="-500.6" cy="182.3" r="17.3"/>
	<path class="st3" d="M58.7,240.5c8.5,1.2,14.9-4.5,24.7-11.3c-7-8.2-13.9-13.6-23.2-11.8c5.9-7.8,7.1-22,5.5-30
		c-1.4,2.4-4.1,5.1-6.6,6.4c-7.8,4.2-15.9,1.7-19.5,11.5c-1.9-7.1-6.8-17.2-13.6-21.7c-2.1,8.8-13.3,20.5-6.4,31
		c-7.8,0.1-16,8.4-25.8,9.1C5.9,227.5,8,238,20,236.6c-11.2,9.1-5.8,24.9-7.1,33.3c8-3.4,19.8-9.6,25.2-19.4
		c1.9,15.3,20.7,12.1,27.3,17.1C67.1,256.2,65.1,246.5,58.7,240.5z"/>
	<g>
		<path class="st4" d="M-509.8,326.1c0,4.5,0,8.7,0,13.2c3.5,2.1,7.3,4.4,10.7,6.4c0.2-5.1,0.1-8.6,0.3-13.4
			C-502.4,330.2-505.4,328.4-509.8,326.1z"/>
		<path class="st4" d="M68.3,346.8c2.6-3.2,4-7.1,4-11.3c0-3.3-0.8-6.8-2.4-10.6c-1.4-3.2-3.2-6.2-5.4-8.9
			c-5.3-6.7-11.2-8.1-15.2-8.1c-2.2,0-4.4,0.4-6.7,1.3c0,0-0.1,0-0.1,0.1c-4.8-0.9-8.3-1.3-10.9-1.3c-1.6,0-3.2,0.1-4.7,0.3
			c0.1-0.8,0.2-1.7,0.2-2.6c0-2.8-0.7-5.6-2-8.2c3.2-1,6.2-2.4,9-4.1c3.7-2.3,6.7-5,9.1-8.2c3.1-4.1,4.6-8.5,4.6-13
			c0-4.1-1.2-7.9-3.5-11.2c3.8-4.2,5.7-9.6,5.7-15.6c0-9.1-4.7-17.2-13.1-22.7c-7.4-4.8-15.8-7.2-25.1-7.2
			c-12.1,0-22.7,3.8-31.4,11.2c-0.4-1.5-1.1-2.8-1.9-4c1.4-2.8,2.1-5.8,2.1-9.1c0-6.4-3.2-12.1-8.8-15.7c-4-2.6-9-3.9-14.8-3.9
			c-5.8,0-11.9,1.3-18.2,3.8c-7,2.8-10.7,6.8-12.8,10.5c-0.2-0.4-0.4-0.7-0.7-1.1c-1.6-2.2-5.3-5.8-12.1-5.8h-4.7
			c-3,0-5.9,0.7-8.3,2c-0.3,0.1-0.5,0.3-0.8,0.5l-23.8,15c-3.8-2.8-7.6-3.5-10.4-3.5c-2.2,0-4.4,0.4-6.7,1.3c0,0-0.1,0-0.1,0.1
			c-4.8-0.9-8.3-1.3-10.9-1.3c-10.6,0-19.7,4-26.1,11.6c-0.4,0.4-0.7,0.9-1.1,1.4c-1.6-2-3.5-3.8-5.7-5.5c-6.9-5-15.2-7.5-24.6-7.5
			c-9.4,0-18.6,2.3-27.2,6.7c-0.3-0.4-0.6-0.9-0.9-1.3c-2-2.5-5.8-5.4-12.6-5.4h-1.1c-0.2-2.1-0.8-5.3-2.9-8.1
			c-1.6-2.2-5.3-5.8-12.1-5.8h-4.7c-3,0-5.9,0.7-8.3,2c-0.3,0.1-0.5,0.3-0.8,0.5l-26.6,16.7c-0.4,0.3-0.9,0.6-1.3,0.9
			c-5.6-3.8-11.9-5.7-19.1-5.7c-5.2,0-10,1.1-14.1,3.2c-2.8-2-6.1-3.1-9.7-3.1c-2.5,0-5.6,0.5-10.3,1.8c-3.8,1-7.7,2.2-11.7,3.6
			c-5.2,1.9-8.6,3.4-11,5c-1.2-1.2-2.4-2.3-3.8-3.4c-6.9-5-15.1-7.5-24.6-7.5c-5.5,0-11,0.8-16.3,2.4c-0.8-6.3-3.3-12.2-7.5-17.6
			c-5-6.2-10.8-7.1-13.8-7.1c-0.9,0-1.8,0.1-3,0.2c-0.2,0-0.3,0-0.5,0.1c-2.9,0.5-9.8,1-26.4,1c-8.4,0-15.7-0.2-21.6-0.7
			c-3.4-0.3-5.9-0.4-7.8-0.4c-5,0-9.5,1.3-13.3,3.9c-5.1,3.5-8,8.8-8,14.6c0,5.6,2.3,9.3,4.3,11.4c1.2,1.3,2.7,2.4,4.6,3.5
			c0.1,1.7,0.2,4.5,0.2,8.9c0,16.6-0.3,24.6-0.7,28.4c-1,0.5-1.7,0.9-2.4,1.5c-0.2,0.1-0.4,0.3-0.6,0.5c-4.1,3.4-6.3,8.3-6.3,13.7
			c0,4.1,1.3,8,3.8,11.3c2.4,3.2,5.7,5.5,9.6,6.7c1.6,0.5,3.5,0.9,5.7,1.2c-6.4,3.4-12.6,6.8-19.1,10.3c1.7,3.6,3,7.2,4.7,10.7
			c9.8-2.2,19.5-4.4,29.5-6.6c10,12.8,19.6,25.9,29.9,38.8c1.6-0.9,10.5-5.3,21.1-10.7c-0.1,0.1-0.2,0.2-0.3,0.4
			c-2.5,3.1-3.8,7.2-3.8,12c0,4.9,0.9,9.9,2.5,14.9c-9.9,5.9-21.5,12.7-24.3,14.3c-2.9-1.7-5.5-3.3-8.3-4.9c0-6.3,0-12.5,0-18.9
			c-4.2-2.5-8.4-5-13.2-7.8c0,6.6,0,12.5,0,18.5c-2.4-1.3-16.2-9.1-23.5-13.4l-0.2-28.8c-2.2,0.6-4.9,1.5-7.1,2.1
			c0,10.3,0,20.4,0,30.8c17.6,10.4,35,20.7,52.4,31c3.4-2,16.5-10.1,26.8-16.4c2.1,4.2,4.6,7.2,7.7,9.2c3.9,2.6,9,4.4,16.2,6
			c6.3,1.4,12.5,2,18.3,2c13.9,0,25.5-3.6,34.6-10.6c1.6-1.2,2.9-2.5,4.3-3.8c1.3,1.5,2.7,3,4.2,4.3c7.9,6.8,17.5,10.2,28.6,10.2
			c9.3,0,17.7-2.4,25.2-7c2,1.7,4.4,3.1,7.2,4.1c5,1.7,11.4,2.5,19.6,2.5c8.1,0,14.3-0.5,18.9-1.4c4.3-0.9,8.1-3,11-6
			c3.4-3.5,5.1-8,5.1-12.8c0-0.1,0-0.2,0-0.3c6.4-3.6,14.5-6.9,19.2-4.2c0,0,0.1,0,0.1,0.1l4,7.6c2.3,4.2,4.9,8,7.9,11.4
			c3.5,4,8.4,6.2,13.8,6.2c3.8,0,9.4-1.2,14.5-6.7c2.5-2.7,5-6.5,7.9-12.2l5.1-10c0.4,0.3,0.8,0.5,1.2,0.7c-1,1.9-2,4.6-2,8.1
			c0,4.3,1.5,8.3,4.3,11.5c2.4,2.8,5.6,4.9,9.3,5.9c5.3,1.4,11.6,2.1,19.6,2.1c14.6,0,22.5-3.5,26.8-8c7.5,5.5,16.4,8.4,26.4,8.4
			c9.2,0,17.4-2.2,24.4-6.5c2.6-1.6,4.8-3.4,6.8-5.5c0.6,0.6,1.3,1.3,1.9,1.8c7.9,6.8,17.5,10.2,28.6,10.2c10.4,0,19.8-3,28-8.8
			c0.9,1.2,1.9,2.3,2.9,3.2c2.4,2.1,6.5,4.6,12.7,4.6c1.1,0,2.4-0.1,4.2-0.4l0.1,0c0.7,0.1,2.1,0.2,4.8,0.5c4.5,0.6,7.5,0.8,9.6,0.8
			c8.7,0,16.3-2.5,22.6-7.3c7.8-6,12-14.1,12-23.4C72.5,356.2,71.1,351.2,68.3,346.8z"/>
	</g>
	<g>
		<g>
			<path class="st5" d="M-380.8,330.5c-2.2-1.1-7.3-2.8-15.3-5.2c-5.9-1.7-8.9-4.2-8.9-7.6c0-1.7,0.6-3.1,1.9-4.1
				c1.3-1,3-1.6,5.2-1.6c4.5,0,9,2.2,13.7,6.5c3.3,3,5.4,4.9,6.4,5.5c1,0.6,2.2,0.9,3.8,0.9c1.9,0,3.4-0.7,4.7-2.2
				c1.3-1.5,1.9-3.3,1.9-5.5c0-3.7-1.4-7.6-4.3-11.7c-2.9-4.1-5.6-6.1-8.2-6.1c-0.7,0-1.3,0.1-2,0.4c-1.9,0.7-3.1,1-3.5,1
				c-0.5,0-1.1-0.1-1.9-0.3c-6.5-2-11.7-3-15.6-3c-9.3,0-17.3,2.7-23.7,8.2c-2.9,2.4-5.1,5.1-6.7,8.4c-1.6,3.2-2.4,6.5-2.4,9.9
				c0,6.9,3.1,13,9.2,18.4c2.5,2.2,5.2,4,8.1,5.5c2.9,1.4,7.1,3,12.6,4.8c3.1,1,5.4,2,6.8,3.1c1.4,1.1,2.1,2.4,2.1,4
				c0,1.7-0.9,3-2.7,4.1c-1.8,1.1-4.1,1.6-6.9,1.6c-3.3,0-6.5-0.7-9.6-2.1c-3.1-1.4-5.4-3.2-6.8-5.4c-3-4.6-4.9-7.3-5.7-8.2
				c-1.3-1.5-2.8-2.3-4.2-2.3c-1.5,0-2.7,0.6-3.7,1.9c-0.8,1-1.2,2.4-1.2,4.3c0,3.9,0.7,8,2.2,12.1c1.5,4.1,3.2,6.8,5,8.1
				c2.4,1.6,6.4,3,11.9,4.1c5.5,1.2,10.7,1.8,15.6,1.8c11.1,0,20.1-2.7,26.9-8c6.7-5.2,10.1-11.9,10.1-20.1
				C-366.1,342.4-371,335.3-380.8,330.5z"/>
			<path class="st5" d="M-311.3,326.8c-5.1-4.2-11.4-6.2-18.7-6.2c-4.6,0-8.9,0.8-12.8,2.5c-5.3,2.2-9.6,5.5-13,10
				c-3.9,5.2-5.9,11-5.9,17.5c0,4.8,1.1,9.4,3.4,13.8c1.7,3.3,3.9,6.1,6.6,8.4c5.5,4.7,12.3,7.1,20.4,7.1c8,0,15.1-2.3,21.3-6.9
				c3.5-2.6,5.2-5.3,5.2-8c0-1.3-0.5-2.6-1.4-3.8c-1-1.2-2-1.9-3-1.9c-0.8,0-1.8,0.5-3.1,1.4c-1.5,1-3.3,1.9-5.6,2.6
				c-2.3,0.7-4.3,1.1-6.2,1.1c-3.1,0-6-1.1-8.8-3.3c-2.7-2.2-4.1-4.6-4.1-7.1c0-1,0.6-1.6,1.8-1.6h27.2c1.7,0,3-0.8,4-2.4
				c1-1.6,1.6-3.7,1.6-6.2c0-3.1-0.9-6.3-2.7-9.5C-306.6,331.4-308.7,328.9-311.3,326.8z M-327.8,341.5h-5.8c-1.4,0-2.4-0.2-2.9-0.7
				c-0.6-0.5-0.8-1.3-0.8-2.4c0-1.6,0.6-3.2,1.7-4.8c1.2-1.7,2.9-2.5,5.1-2.5c1.9,0,3.5,0.7,4.7,2c1.2,1.3,1.8,3,1.8,5.1
				C-324.1,340.3-325.4,341.5-327.8,341.5z"/>
			<path class="st5" d="M-241.9,324.4c-2.2-2.3-5.1-3.4-8.6-3.4c-5,0-9,2.4-12.1,7.2c-0.7,1.1-1.4,1.7-2.2,1.7c-1,0-1.6-0.8-1.8-2.5
				c-0.3-3.1-0.7-5-1.2-5.5c-0.4-0.6-1.7-0.9-3.7-0.9c-4.2,0-9.2,0.9-15.2,2.7c-4.4,1.3-7.6,2.6-9.5,4c-1.9,1.3-2.8,2.9-2.8,4.8
				c0,2,1.4,3.6,4.1,4.7c1.2,0.5,1.9,1.1,2.3,1.8c0.4,0.7,0.6,2,0.6,3.7c0,9.5-0.3,16-0.9,19.5c-0.2,1-0.4,1.9-0.9,2.5
				c-0.4,0.6-1.2,1.3-2.3,2c-2.3,1.6-3.5,3.4-3.5,5.4c0,2.7,1.6,4.5,4.7,5.6c3.6,1.2,8.7,1.8,15.6,1.8c7.2,0,12.6-0.4,16.3-1.2
				c1.9-0.4,3.3-1.2,4.5-2.3c1.1-1.2,1.7-2.6,1.7-4.1c0-2.6-1.7-4.4-5.2-5.4c-1.6-0.5-2.6-0.9-3.1-1.4c-0.5-0.4-0.9-1.2-1.1-2.4
				c-0.4-2.1-0.6-6.1-0.6-11.9c0-3.9,0.2-6.5,0.5-7.7c0.3-1.2,1-1.8,2.1-1.8c0.7,0,1.5,0.4,2.3,1.2c2.2,2.1,3.9,3.5,5.2,4.2
				c1.3,0.7,3,1,5,1c3.6,0,6.6-1.2,9.1-3.5c1.4-1.2,2.4-2.8,3.3-4.7c0.8-1.9,1.3-3.8,1.3-5.6c0-1.6-0.4-3.3-1-5.1
				C-239.9,326.9-240.8,325.5-241.9,324.4z"/>
			<path class="st5" d="M-172.5,321c-5.6,0-9.6,0.4-12.1,1.2c-2.5,0.8-3.7,2.1-3.7,4c0,1.2,0.7,2.5,2,3.9c1.2,1.3,1.9,2.4,1.9,3.3
				c0,1.2-0.6,2.9-1.8,5.1c-1.6,3-2.7,4.9-3.4,5.7c-0.6,0.7-1.4,1.1-2.4,1.1c-1.5,0-3.1-1.5-4.8-4.5c-1.7-3.1-2.5-5.2-2.5-6.6
				c0-0.6,0.1-1.2,0.4-1.6c0.3-0.4,0.9-1.1,1.8-1.9c1.5-1.3,2.2-2.6,2.2-4c0-2-1.6-3.4-4.7-4.4c-3.1-0.9-7.9-1.4-14.5-1.4
				c-7.8,0-13.6,0.5-17.2,1.6c-3.6,1.1-5.4,2.8-5.4,5.2c0,2.3,1.5,3.9,4.4,4.8c1.5,0.4,2.6,1,3.4,1.7c0.8,0.8,1.7,2,2.6,3.7
				l16.4,31.2c1.8,3.3,3.8,6.3,6.2,8.9c1.1,1.3,2.6,2,4.4,2c1.9,0,3.6-0.9,5.2-2.6c1.6-1.8,3.6-4.9,5.9-9.4l15-29.2
				c1.7-3.2,2.9-5.3,3.7-6.1c0.8-0.8,2.3-1.6,4.5-2.3c2.8-0.9,4.2-2.3,4.2-4.3C-160.6,322.7-164.6,321-172.5,321z"/>
			<path class="st5" d="M-155.8,315.7c1.7,1.1,3.9,1.6,6.7,1.6c6.7,0,12.4-1.4,17.1-4.1c3-1.7,4.5-4.1,4.5-7.1c0-2.1-1-3.8-3-5.1
				c-2-1.2-4.6-1.9-8-1.9c-4.2,0-8.7,1-13.5,2.9c-4.8,1.9-7.1,4.5-7.1,7.8C-159.1,312.4-158,314.3-155.8,315.7z"/>
			<path class="st5" d="M-123.3,367.5c-1.5-1-2.4-2.2-2.9-3.4c-0.5-1.2-0.7-3.2-0.7-5.8v-33.6c0-2.4-1.1-3.6-3.2-3.6
				c-2.7,0-6.5,0.6-11.5,1.7c-4.9,1.2-9.6,2.6-13.9,4.2c-3.1,1.2-4.7,3-4.7,5.4c0,2,1.2,3.6,3.6,4.6c1.9,0.8,3,2.1,3.2,3.7
				c0.1,0.6,0.2,2.6,0.4,6.1c0.2,3.5,0.3,5.9,0.3,7.1c0,4-0.3,7-0.8,9c-0.5,2-1.4,3.5-2.5,4.3c-1.7,1.3-2.8,2.2-3.2,2.8
				c-0.4,0.6-0.6,1.4-0.6,2.4c0,1.2,0.4,2.3,1.2,3.3c0.8,1,1.9,1.6,3.3,2c4,1.1,9.4,1.6,16.2,1.6c12.6,0,18.9-2.5,18.9-7.5
				c0-0.9-0.2-1.7-0.6-2.3C-121.4,369-122.1,368.3-123.3,367.5z"/>
			<path class="st5" d="M-85,335.1c2.9,0,4.9,1.6,6,4.9c1,3,1.7,4.9,2.2,5.6c1.6,2.3,4,3.5,7.2,3.5c3,0,5.7-1,7.8-3
				c2.3-2.1,3.5-4.8,3.5-8.2c0-4.9-2.5-8.9-7.5-12.2c-5.3-3.4-11.3-5.2-18.2-5.2c-9.1,0-16.9,2.7-23.2,8.2c-6.7,5.7-10,12.9-10,21.7
				c0,9.1,3.6,16.5,10.8,22.4c5.6,4.6,12.4,6.9,20.3,6.9c6.8,0,12.8-1.5,17.8-4.6c2.3-1.4,4.2-3.1,5.6-5c1.4-1.9,2.1-3.7,2.1-5.5
				c0-1.7-0.5-3.1-1.5-4.3c-1-1.2-2.2-1.9-3.5-1.9c-0.6,0-1.2,0.1-1.8,0.4c-2.1,1-3.8,1.7-5.2,2c-1.3,0.3-2.9,0.5-4.9,0.5
				c-4.1,0-7.5-1.5-10.2-4.3c-3.3-3.6-5-7.7-5-12.3c0-2.7,0.7-5,2.2-6.8C-88.9,336-87.1,335.1-85,335.1z"/>
			<path class="st5" d="M-4.3,326.8c-5.1-4.2-11.4-6.2-18.7-6.2c-4.6,0-8.9,0.8-12.8,2.5c-5.3,2.2-9.6,5.5-13,10
				c-3.9,5.2-5.9,11-5.9,17.5c0,4.8,1.1,9.4,3.4,13.8c1.7,3.3,3.9,6.1,6.6,8.4c5.5,4.7,12.3,7.1,20.4,7.1c8,0,15.1-2.3,21.3-6.9
				c3.5-2.6,5.2-5.3,5.2-8c0-1.3-0.5-2.6-1.4-3.8c-1-1.2-1.9-1.9-3-1.9c-0.8,0-1.8,0.5-3.1,1.4c-1.5,1-3.3,1.9-5.6,2.6
				s-4.3,1.1-6.2,1.1c-3.1,0-6.1-1.1-8.8-3.3c-2.7-2.2-4.1-4.6-4.1-7.1c0-1,0.6-1.6,1.8-1.6H-1c1.7,0,3-0.8,4-2.4
				c1-1.6,1.6-3.7,1.6-6.2c0-3.1-0.9-6.3-2.7-9.5C0.3,331.4-1.8,328.9-4.3,326.8z M-20.8,341.5h-5.8c-1.4,0-2.4-0.2-2.9-0.7
				c-0.6-0.5-0.8-1.3-0.8-2.4c0-1.6,0.6-3.2,1.7-4.8c1.2-1.7,2.9-2.5,5.1-2.5c1.9,0,3.5,0.7,4.7,2c1.2,1.3,1.8,3,1.8,5.1
				C-17.1,340.3-18.4,341.5-20.8,341.5z"/>
			<path class="st5" d="M55.5,350.9c-3.5-3.5-8.5-6.7-15-9.6c-3.6-1.7-5.4-3.4-5.4-5.3c0-1.1,0.4-2,1.2-2.8c0.8-0.8,1.7-1.2,2.8-1.2
				c1.6,0,3.7,1.2,6.1,3.6c2.4,2.2,4.1,3.7,5.1,4.3c1.1,0.7,2.3,1,3.6,1c1.6,0,3-0.5,4.1-1.5c1.1-1,1.6-2.3,1.6-3.9
				c0-1.6-0.5-3.5-1.4-5.6c-0.9-2.2-2.1-4.2-3.6-6c-1.8-2.3-3.6-3.4-5.4-3.4c-0.6,0-1.4,0.2-2.3,0.5c-1.9,0.7-3.2,1-3.8,1
				c-0.6,0-1.3-0.1-2.2-0.2c-4.4-0.8-7.5-1.3-9.4-1.3c-7,0-12.4,2.4-16.4,7.1c-2.8,3.3-4.2,7.3-4.2,11.9c0,4.2,1.4,8,4.1,11.2
				c2.8,3.2,7.3,6.4,13.5,9.4c3,1.4,4.5,3,4.5,4.7c0,1.1-0.4,2-1.2,2.7c-0.8,0.7-1.8,1-3.1,1c-1.2,0-2.3-0.3-3.4-1
				c-1-0.6-2.4-1.8-3.9-3.5c-2.9-3.1-4.8-5-5.7-5.7c-0.9-0.7-1.9-1.1-3-1.1c-2.8,0-4.2,1.8-4.2,5.3c0,2.2,0.7,4.8,2,7.9
				c1.4,3.1,2.8,5.3,4.4,6.7c1,0.9,2.5,1.4,4.3,1.4c0.5,0,1.3-0.1,2.4-0.2c0.6-0.1,1.2-0.2,1.7-0.2c0.5,0,2.6,0.2,6.3,0.6
				c4,0.5,6.7,0.7,8.2,0.7c5.9,0,10.8-1.6,14.9-4.7c4.7-3.6,7.1-8.1,7.1-13.4C59.9,357.4,58.5,353.8,55.5,350.9z"/>
		</g>
		<g>
			<path class="st5" d="M-442.6,228.1c1.1-1.4,1.7-3.3,1.7-5.7c0-5.3-1.7-10-5.1-14.4c-1.2-1.5-2.5-2.3-3.9-2.3
				c-0.4,0-0.8,0-1.5,0.1c-4.9,0.8-14.3,1.2-28.3,1.2c-8.8,0-16.3-0.2-22.6-0.7c-3-0.2-5.2-0.3-6.8-0.3c-2.4,0-4.5,0.6-6.1,1.7
				c-1.7,1.1-2.5,2.6-2.5,4.3c0,1.2,0.3,2.1,0.9,2.8c0.6,0.6,1.9,1.4,3.8,2.2c1.9,0.8,3.2,2.4,3.7,4.5c0.5,2.2,0.7,6.9,0.7,14.2
				c0,16.9-0.3,27.7-1,32.5c-0.4,3.1-1.7,5.1-3.9,5.9c-1.8,0.7-2.9,1.2-3.2,1.5c-1.2,1-1.9,2.4-1.9,4.1c0,1.4,0.4,2.6,1.3,3.7
				c0.8,1.1,2,1.9,3.3,2.3c3,0.9,8.5,1.4,16.4,1.4c9.1,0,16.1-0.6,21.1-1.8c3.5-0.8,5.2-2.8,5.2-5.7c0-1.2-0.4-2.2-1-3.1
				c-0.7-0.9-1.5-1.4-2.5-1.6c-2-0.3-3.3-0.5-3.8-0.7c-0.5-0.2-1-0.6-1.4-1.1c-1.4-1.5-2.1-5.5-2.1-12.2c0-3.3,0.1-5.1,0.1-5.4
				c-0.1-1.7,0.2-2.9,0.8-3.5s1.8-0.9,3.5-0.9c2.4,0,4.3,0.6,5.6,1.8c0.8,0.7,1.4,1.5,1.6,2.3c0.3,0.8,0.5,2.2,0.7,4.2
				c0.4,3.1,1.7,4.6,3.9,4.6c2.2,0,3.9-1,5.1-3.1c2-3.4,3.1-8.6,3.1-15.8c0-11.3-2.4-16.9-7.1-16.9c-2.7,0-4.6,2.1-5.4,6.3
				c-0.3,1.5-0.9,2.5-1.7,3.1c-0.8,0.6-2.1,0.9-3.8,0.9c-2.5,0-4.3-0.3-5.2-0.8c-0.9-0.5-1.4-1.5-1.4-3c0-2.4,0.2-5.1,0.6-8
				c0.4-2.9,0.8-4.9,1.3-5.9c0.6-1.3,2.3-2,4.9-2c6.7,0.2,11.2,0.6,13.7,1.2s4.5,1.9,6.3,3.9c2.9,3.2,4.6,5.1,5.3,5.7
				s1.7,0.8,3.1,0.8C-445.2,230.3-443.7,229.6-442.6,228.1z"/>
			<path class="st5" d="M-383.8,271.5c-1.2-0.2-2-0.4-2.4-0.6c-0.4-0.2-0.8-0.8-1.2-1.6c-0.8-1.8-1.3-5.7-1.3-11.6l0.1-8.6
				c0-4.1-0.5-7.3-1.5-9.6c-1-2.3-2.7-4.4-5.2-6.2c-4.7-3.4-10.4-5.1-17.1-5.1c-7.6,0-14.9,1.9-21.9,5.6c-2.5,1.4-4.6,3-6,4.9
				c-1.5,1.9-2.2,3.7-2.2,5.6c0,1.8,0.6,3.3,1.8,4.4c1.2,1.1,2.7,1.7,4.6,1.7c3.7,0,7.3-2.4,10.8-7.3c1.3-1.9,2.5-3.1,3.4-3.8
				c0.9-0.7,1.9-1,3.1-1c1.9,0,3.3,0.9,4.2,2.8c0.8,1.8,1.3,4.8,1.3,8.9c0,1.6-0.3,2.7-0.9,3.1c-0.6,0.4-2,0.7-4.2,0.7
				c-10.1,0-17.6,2.5-22.7,7.4c-3.2,3.1-4.9,6.6-4.9,10.7c0,2.5,0.6,4.9,1.8,7.2c1.2,2.3,2.8,4.2,4.9,5.6c3.1,2.2,7.2,3.2,12.3,3.2
				c4.9,0,9.3-1.4,13.1-4.2c1.3-1,2.3-1.4,3.1-1.4c0.7,0,1.4,0.5,2.3,1.5c2.4,2.8,5.6,4.2,9.6,4.2c3.2,0,6.2-0.8,9.1-2.5
				c2.4-1.3,4.3-3,5.8-5s2.2-3.9,2.2-5.8C-382,272.5-382.6,271.7-383.8,271.5z M-417.7,274.8c-1.5,0-2.6-0.6-3.5-1.7
				c-0.9-1.1-1.3-2.6-1.3-4.5c0-1.9,0.6-3.6,1.9-5c1.2-1.4,2.7-2.1,4.4-2.1c1.2,0,2.1,0.4,2.5,1.2c0.4,0.7,0.7,2.2,0.7,4.3
				C-413.1,272.2-414.6,274.8-417.7,274.8z"/>
			<path class="st5" d="M-306.4,273.2c-0.4-0.7-0.6-1.9-0.7-3.4l-0.8-20.4c-0.2-4.8-0.8-8.4-1.8-10.8c-1-2.4-2.7-4.6-5.1-6.4
				c-3.5-2.5-7.6-3.8-12.5-3.8c-6.3,0-11.2,2.4-14.5,7.2c-1,1.5-2,2.2-3,2.2c-1.5,0-2.3-0.9-2.3-2.8c0-0.2,0-0.5,0.1-0.8
				c0-0.8,0.1-1.3,0.1-1.4c0-1.2-0.4-2.2-1.2-3c-0.8-0.8-1.8-1.3-2.9-1.3c-1.3,0-3.6,0.5-7.1,1.4c-3.4,0.9-7,2-10.7,3.3
				c-4.2,1.5-7,2.8-8.3,3.7c-1.3,1-2,2.2-2,3.8c0,1.5,0.8,2.8,2.5,3.8c1.9,1.2,3.1,2.2,3.5,3c0.4,0.8,0.6,2.6,0.6,5.2
				c0,4.8-0.1,9.4-0.4,13.8c-0.2,3.7-0.5,6-0.7,7c-0.3,0.9-0.9,1.8-1.9,2.5c-1.2,0.9-2,1.6-2.3,2.1c-0.3,0.5-0.5,1.2-0.5,2.1
				c0,4.4,5.4,6.7,16.1,6.7c6.7,0,11.7-0.5,14.8-1.6s4.8-2.8,4.8-5c0-0.9-0.2-1.7-0.6-2.4c-1.6-2.4-2.6-4.1-2.9-4.9
				c-0.3-0.8-0.4-2.4-0.4-4.7v-11.5c0-4.4,0.5-7.4,1.4-9c1-1.7,2.7-2.5,5.3-2.5c2.7,0,4.6,1,5.6,3.1c1.2,2.5,1.9,6.5,1.9,11.8
				c0,9.2-0.8,14.6-2.3,16.2c-1.3,1.4-2.1,2.3-2.3,2.7c-0.2,0.4-0.4,0.9-0.4,1.7c0,2.2,1.1,3.7,3.4,4.7c2.2,0.9,6,1.4,11.3,1.4
				c7.8,0,13.3-0.5,16.3-1.5c3.1-1,4.6-2.8,4.6-5.3c0-1.1-0.3-2-0.9-2.6C-304.9,275.4-306,274-306.4,273.2z"/>
			<path class="st5" d="M-250.5,268.1c-0.6,0-1.2,0.2-1.7,0.5c-2.5,1.4-4.5,2.1-6,2.1c-1.8,0-3.2-0.7-4.4-2.2
				c-1.1-1.5-1.7-3.4-1.7-5.7v-19.6c0-1.1,0.2-1.8,0.6-2.2c0.4-0.4,1.1-0.6,2.2-0.6h10.5c1.4,0,2.4-0.4,3-1.1c0.5-0.7,0.8-2,0.8-3.8
				v-3.4c0-1.7-0.2-2.8-0.6-3.3c-0.4-0.5-1.4-0.8-2.8-0.8h-10.7c-1.2,0-2-0.2-2.4-0.5c-0.4-0.4-0.5-1.1-0.5-2.3v-7.8
				c0-1.3-0.2-2.2-0.5-2.6c-0.3-0.4-1-0.7-1.9-0.7h-4.7c-1,0-1.8,0.2-2.4,0.5l-26.5,16.7c-0.8,0.5-1.3,1.4-1.3,2.5v2.5
				c0,1.4,0.2,2.2,0.5,2.6c0.3,0.4,1,0.5,2.1,0.5h6c0.9,0,1.4,0.1,1.7,0.3c0.2,0.2,0.3,0.8,0.3,1.7v26.8c0,5.7,1.9,10.3,5.6,13.8
				c3.7,3.5,8.7,5.2,14.9,5.2c7.8,0,14.4-2.3,19.9-7c2.6-2.2,3.9-4.5,3.9-6.9c0-1.3-0.4-2.5-1.2-3.7
				C-248.7,268.6-249.5,268.1-250.5,268.1z"/>
			<path class="st5" d="M-181.5,271.5c-1.2-0.2-2-0.4-2.4-0.6c-0.4-0.2-0.8-0.8-1.2-1.6c-0.8-1.8-1.3-5.7-1.3-11.6l0.1-8.6
				c0-4.1-0.5-7.3-1.5-9.6c-1-2.3-2.7-4.4-5.2-6.2c-4.7-3.4-10.4-5.1-17.1-5.1c-7.6,0-14.9,1.9-21.9,5.6c-2.5,1.4-4.6,3-6.1,4.9
				c-1.5,1.9-2.2,3.7-2.2,5.6c0,1.8,0.6,3.3,1.8,4.4c1.2,1.1,2.7,1.7,4.6,1.7c3.7,0,7.3-2.4,10.8-7.3c1.4-1.9,2.5-3.1,3.4-3.8
				c0.9-0.7,1.9-1,3.1-1c1.9,0,3.3,0.9,4.2,2.8c0.8,1.8,1.3,4.8,1.3,8.9c0,1.6-0.3,2.7-0.9,3.1c-0.6,0.4-2,0.7-4.2,0.7
				c-10.1,0-17.6,2.5-22.7,7.4c-3.2,3.1-4.9,6.6-4.9,10.7c0,2.5,0.6,4.9,1.8,7.2c1.2,2.3,2.8,4.2,4.9,5.6c3.1,2.2,7.2,3.2,12.3,3.2
				c4.9,0,9.3-1.4,13.1-4.2c1.3-1,2.3-1.4,3.1-1.4c0.7,0,1.5,0.5,2.3,1.5c2.4,2.8,5.6,4.2,9.6,4.2c3.2,0,6.2-0.8,9.1-2.5
				c2.4-1.3,4.3-3,5.8-5c1.5-2,2.2-3.9,2.2-5.8C-179.7,272.5-180.3,271.7-181.5,271.5z M-215.4,274.8c-1.5,0-2.6-0.6-3.5-1.7
				c-0.9-1.1-1.3-2.6-1.3-4.5c0-1.9,0.6-3.6,1.9-5c1.3-1.4,2.7-2.1,4.4-2.1c1.2,0,2.1,0.4,2.5,1.2c0.4,0.7,0.7,2.2,0.7,4.3
				C-210.7,272.2-212.3,274.8-215.4,274.8z"/>
			<path class="st5" d="M-143.7,248.8c-3.6-1.7-5.4-3.4-5.4-5.3c0-1.1,0.4-2,1.2-2.8s1.7-1.2,2.8-1.2c1.6,0,3.7,1.2,6.1,3.6
				c2.4,2.2,4.1,3.7,5.1,4.3c1.1,0.7,2.3,1,3.6,1c1.6,0,3-0.5,4.1-1.5c1.1-1,1.6-2.3,1.6-3.9c0-1.6-0.5-3.5-1.4-5.6
				c-0.9-2.2-2.1-4.2-3.6-6c-1.8-2.3-3.6-3.4-5.4-3.4c-0.6,0-1.4,0.2-2.3,0.5c-1.9,0.7-3.2,1-3.8,1c-0.6,0-1.3-0.1-2.2-0.2
				c-4.4-0.8-7.5-1.3-9.4-1.3c-7,0-12.4,2.4-16.4,7.1c-2.8,3.3-4.2,7.3-4.2,11.9c0,4.2,1.4,8,4.1,11.2c2.8,3.2,7.3,6.4,13.5,9.4
				c3,1.4,4.5,3,4.5,4.7c0,1.1-0.4,2-1.2,2.7c-0.8,0.7-1.8,1-3.1,1c-1.2,0-2.3-0.3-3.4-1c-1-0.6-2.4-1.8-3.9-3.5
				c-2.9-3.1-4.8-5-5.7-5.7c-0.9-0.7-1.9-1.1-3-1.1c-2.8,0-4.2,1.8-4.2,5.3c0,2.2,0.7,4.8,2,7.9c1.4,3.1,2.8,5.3,4.4,6.7
				c1,0.9,2.5,1.4,4.3,1.4c0.5,0,1.3-0.1,2.4-0.2c0.7-0.1,1.2-0.2,1.7-0.2c0.5,0,2.6,0.2,6.3,0.6c4,0.5,6.7,0.7,8.2,0.7
				c5.9,0,10.8-1.6,14.9-4.7c4.7-3.6,7.1-8.1,7.1-13.4c0-4.2-1.5-7.8-4.4-10.8C-132.2,254.9-137.2,251.7-143.7,248.8z"/>
			<path class="st5" d="M-70.8,268.1c-0.6,0-1.2,0.2-1.7,0.5c-2.5,1.4-4.5,2.1-6,2.1c-1.8,0-3.2-0.7-4.4-2.2
				c-1.1-1.5-1.7-3.4-1.7-5.7v-19.6c0-1.1,0.2-1.8,0.6-2.2c0.4-0.4,1.1-0.6,2.2-0.6h10.5c1.4,0,2.4-0.4,3-1.1c0.5-0.7,0.8-2,0.8-3.8
				v-3.4c0-1.7-0.2-2.8-0.6-3.3c-0.4-0.5-1.3-0.8-2.8-0.8h-10.7c-1.2,0-2-0.2-2.3-0.5c-0.4-0.4-0.5-1.1-0.5-2.3v-7.8
				c0-1.3-0.2-2.2-0.5-2.6c-0.3-0.4-1-0.7-1.9-0.7h-4.7c-1,0-1.8,0.2-2.4,0.5l-26.5,16.7c-0.8,0.5-1.3,1.4-1.3,2.5v2.5
				c0,1.4,0.2,2.2,0.5,2.6c0.3,0.4,1,0.5,2.1,0.5h6c0.9,0,1.4,0.1,1.7,0.3c0.2,0.2,0.3,0.8,0.3,1.7v26.8c0,5.7,1.9,10.3,5.6,13.8
				c3.7,3.5,8.7,5.2,14.9,5.2c7.8,0,14.4-2.3,19.9-7c2.6-2.2,3.9-4.5,3.9-6.9c0-1.3-0.4-2.5-1.2-3.7
				C-69.1,268.6-69.9,268.1-70.8,268.1z"/>
			<path class="st5" d="M-28.3,275c-1.5-1-2.4-2.2-2.9-3.4c-0.5-1.2-0.7-3.2-0.7-5.8v-33.6c0-2.4-1.1-3.6-3.2-3.6
				c-2.7,0-6.5,0.6-11.5,1.7c-4.9,1.2-9.6,2.6-13.9,4.2c-3.1,1.2-4.7,3-4.7,5.4c0,2,1.2,3.6,3.6,4.6c1.9,0.8,3,2.1,3.2,3.7
				c0.1,0.6,0.2,2.6,0.4,6.1c0.2,3.5,0.3,5.9,0.3,7.1c0,4-0.3,7-0.8,9c-0.5,2-1.4,3.5-2.5,4.3c-1.7,1.3-2.8,2.2-3.2,2.8
				c-0.4,0.6-0.6,1.4-0.6,2.4c0,1.2,0.4,2.3,1.2,3.3c0.8,1,1.9,1.6,3.3,2c4,1.1,9.4,1.6,16.2,1.6c12.6,0,18.9-2.5,18.9-7.5
				c0-0.9-0.2-1.7-0.6-2.3C-26.3,276.6-27.1,275.8-28.3,275z"/>
			<path class="st5" d="M-60.7,223.2c1.7,1.1,3.9,1.6,6.7,1.6c6.7,0,12.4-1.4,17.1-4.1c3-1.7,4.5-4.1,4.5-7.1c0-2.1-1-3.8-3-5.1
				c-2-1.3-4.6-1.9-8-1.9c-4.2,0-8.7,1-13.6,2.9c-4.7,1.9-7.1,4.5-7.1,7.8C-64.1,219.9-62.9,221.8-60.7,223.2z"/>
			<path class="st5" d="M29.6,266c-0.7,0-1.3,0.1-1.8,0.4c-2.1,1-3.8,1.7-5.2,2c-1.3,0.3-2.9,0.5-4.9,0.5c-4.1,0-7.5-1.5-10.2-4.3
				c-3.3-3.6-5-7.7-5-12.3c0-2.7,0.7-5,2.2-6.8c1.5-1.9,3.2-2.8,5.4-2.8c2.9,0,4.9,1.6,6,4.9c1,3,1.7,4.9,2.2,5.6
				c1.6,2.3,4,3.5,7.2,3.5c3.1,0,5.7-1,7.8-2.9c2.3-2.1,3.5-4.8,3.5-8.2c0-4.9-2.5-8.9-7.5-12.2c-5.3-3.4-11.3-5.2-18.2-5.2
				c-9.1,0-16.9,2.7-23.2,8.2c-6.7,5.7-10,12.9-10,21.7c0,9.1,3.6,16.5,10.8,22.4c5.6,4.6,12.4,6.9,20.3,6.9
				c6.8,0,12.8-1.5,17.8-4.6c2.3-1.4,4.2-3.1,5.6-5c1.4-1.9,2.1-3.7,2.1-5.5c0-1.7-0.5-3.1-1.5-4.3C32.1,266.6,30.9,266,29.6,266z"
				/>
		</g>
	</g>
	<g>
		<g>
			<path class="st4" d="M-262.2,419.4v9.4c0,0.5-0.2,1-0.6,1.4c-0.4,0.4-0.8,0.6-1.4,0.6c-0.5,0-1-0.2-1.4-0.6
				c-0.4-0.4-0.6-0.8-0.6-1.4v-23.2c0-0.5,0.2-1,0.6-1.4c0.4-0.4,0.8-0.6,1.4-0.6l7.7,0c2.2,0,4,0.8,5.6,2.3
				c1.5,1.5,2.3,3.4,2.3,5.6c0,2.2-0.8,4-2.3,5.6c-1.5,1.5-3.4,2.3-5.6,2.3L-262.2,419.4L-262.2,419.4z M-256.4,407.4h-5.8v8.2h5.8
				c1.1,0,2.1-0.4,2.9-1.2c0.8-0.8,1.2-1.8,1.2-2.9c0-1.1-0.4-2.1-1.2-2.9C-254.3,407.8-255.3,407.4-256.4,407.4z"/>
			<path class="st4" d="M-228.5,428.8c0,0.7-0.2,1.2-0.6,1.5c-0.4,0.3-0.8,0.4-1.4,0.4c-0.5,0-1-0.1-1.4-0.4s-0.6-0.7-0.6-1.4
				c-1.6,1.2-3.5,1.8-5.6,1.8c-2.6,0-4.8-0.9-6.7-2.8c-1.8-1.8-2.8-4.1-2.8-6.7c0-2.6,0.9-4.8,2.8-6.7c1.8-1.8,4.1-2.8,6.7-2.8
				s4.8,0.9,6.7,2.8c1.8,1.8,2.7,4,2.8,6.6V428.8z M-234,417.3c-1.1-1.1-2.4-1.6-4-1.6s-2.9,0.5-4,1.6c-1.1,1.1-1.6,2.4-1.6,4
				c0,1.5,0.5,2.9,1.6,4c1.1,1.1,2.4,1.6,4,1.6c1.6,0,2.9-0.5,4-1.6c0.9-0.9,1.5-2,1.6-3.3v-0.7c0-0.1,0-0.2,0-0.3
				C-232.4,419.5-233,418.3-234,417.3z"/>
			<path class="st4" d="M-215.6,411.8c0.5,0,1,0.2,1.4,0.6c0.4,0.4,0.6,0.8,0.6,1.4c0,0.5-0.2,1-0.6,1.4c-0.4,0.4-0.8,0.6-1.4,0.6h0
				c-1.5,0-2.9,0.5-4,1.6c-1,1-1.5,2.2-1.6,3.6c0,0.1,0,0.2,0,0.3v7.3c0,0.7-0.2,1.2-0.6,1.6c-0.4,0.4-0.8,0.6-1.4,0.6
				s-1-0.2-1.4-0.6c-0.4-0.4-0.6-0.9-0.6-1.7v-7.3c0-2.6,0.9-4.8,2.8-6.6C-220.6,412.9-218.3,411.9-215.6,411.8z"/>
			<path class="st4" d="M-206.5,411.8v-3.6c0-0.5,0.2-1,0.6-1.4c0.4-0.4,0.8-0.6,1.4-0.6c0.5,0,1,0.2,1.4,0.6
				c0.4,0.4,0.6,0.8,0.6,1.4v3.6h2.1c0.5,0,1,0.2,1.4,0.6c0.4,0.4,0.6,0.8,0.6,1.4c0,0.5-0.2,1-0.6,1.4c-0.4,0.4-0.8,0.6-1.4,0.6
				h-2.1v13.1c0,0.5-0.2,1-0.6,1.4c-0.4,0.4-0.8,0.6-1.4,0.6c-0.5,0-1-0.2-1.4-0.6c-0.4-0.4-0.6-0.8-0.6-1.4v-13.1h-2.2
				c-0.5,0-1-0.2-1.4-0.6c-0.4-0.4-0.6-0.8-0.6-1.4c0-0.5,0.2-1,0.6-1.4c0.4-0.4,0.8-0.6,1.4-0.6H-206.5z"/>
			<path class="st4" d="M-168.6,414.6c1.8,1.8,2.8,4.1,2.8,6.7c0,2.6-0.9,4.8-2.8,6.7c-1.8,1.8-4.1,2.8-6.7,2.8
				c-2.6,0-4.8-0.9-6.7-2.8c-1.8-1.8-2.8-4.1-2.8-6.7c0-2.6,0.9-4.8,2.8-6.7c1.8-1.8,4.1-2.8,6.7-2.8
				C-172.7,411.9-170.4,412.8-168.6,414.6z M-175.3,415.7c-1.5,0-2.9,0.5-4,1.6c-1.1,1.1-1.6,2.4-1.6,4c0,1.5,0.5,2.9,1.6,4
				c1.1,1.1,2.4,1.6,4,1.6c1.5,0,2.9-0.5,4-1.6c1.1-1.1,1.6-2.4,1.6-4c0-1.6-0.5-2.9-1.6-4C-172.4,416.2-173.7,415.7-175.3,415.7z"
				/>
			<path class="st4" d="M-161.1,411.8V409c0-1.3,0.5-2.4,1.4-3.3c0.9-0.9,2-1.4,3.3-1.4c0.5,0,1,0.2,1.3,0.5
				c0.4,0.4,0.6,0.8,0.6,1.3c0,0.5-0.2,1-0.6,1.3c-0.4,0.4-0.8,0.6-1.3,0.6c-0.3,0-0.5,0.1-0.7,0.3c-0.2,0.2-0.3,0.4-0.3,0.7v2.8
				h2.2c0.5,0,1,0.2,1.4,0.6c0.4,0.4,0.6,0.8,0.6,1.4c0,0.5-0.2,1-0.6,1.4c-0.4,0.4-0.8,0.6-1.4,0.6h-2.1v13.1c0,0.5-0.2,1-0.6,1.4
				c-0.4,0.4-0.8,0.6-1.4,0.6c-0.5,0-1-0.2-1.4-0.6c-0.4-0.4-0.6-0.8-0.6-1.4v-13.1h-2.2c-0.5,0-1-0.2-1.4-0.6
				c-0.4-0.4-0.6-0.8-0.6-1.4c0-0.5,0.2-1,0.6-1.4c0.4-0.4,0.8-0.6,1.4-0.6H-161.1z"/>
			<path class="st4" d="M-139.1,414.6c-0.1-0.3-0.2-0.6-0.2-0.9c0-0.5,0.2-1,0.5-1.3c0.4-0.4,0.8-0.5,1.3-0.5c0.5,0,1,0.2,1.3,0.5
				c0.2,0.2,0.3,0.4,0.4,0.7l5.8,11.5l5.8-11.5c0.1-0.3,0.2-0.5,0.5-0.7c0.4-0.4,0.8-0.5,1.3-0.5c0.5,0,1,0.2,1.3,0.5
				c0.4,0.4,0.6,0.8,0.6,1.3c0,0.3-0.1,0.6-0.2,0.8l-11.2,22.5c-0.1,0.3-0.3,0.5-0.5,0.7c-0.4,0.4-0.8,0.6-1.3,0.6
				c-0.5,0-1-0.2-1.3-0.6c-0.4-0.4-0.5-0.8-0.5-1.3c0-0.4,0.1-0.8,0.2-1.1l3.3-6.5L-139.1,414.6z"/>
			<path class="st4" d="M-103.2,414.6c1.8,1.8,2.8,4.1,2.8,6.7c0,2.6-0.9,4.8-2.8,6.7c-1.8,1.8-4.1,2.8-6.7,2.8
				c-2.6,0-4.8-0.9-6.7-2.8c-1.8-1.8-2.8-4.1-2.8-6.7c0-2.6,0.9-4.8,2.8-6.7c1.8-1.8,4.1-2.8,6.7-2.8
				C-107.2,411.9-105,412.8-103.2,414.6z M-109.8,415.7c-1.5,0-2.9,0.5-4,1.6c-1.1,1.1-1.6,2.4-1.6,4c0,1.5,0.5,2.9,1.6,4
				c1.1,1.1,2.4,1.6,4,1.6c1.5,0,2.9-0.5,4-1.6c1.1-1.1,1.6-2.4,1.6-4c0-1.6-0.5-2.9-1.6-4C-107,416.2-108.3,415.7-109.8,415.7z"/>
			<path class="st4" d="M-87.6,430.7c-2.7-0.1-4.8-1.1-6.6-2.8c-1.8-1.8-2.7-4-2.8-6.6V414c0-0.7,0.2-1.3,0.6-1.7
				c0.4-0.4,0.8-0.6,1.4-0.6c0.5,0,1,0.2,1.4,0.6c0.4,0.4,0.6,0.9,0.6,1.6v7.3c0,0.1,0,0.2,0,0.3c0.1,1.4,0.6,2.6,1.6,3.6
				c1.1,1.1,2.4,1.6,4,1.6h0.1c1.6,0,2.9-0.5,4-1.6c1-1,1.5-2.2,1.6-3.6c0-0.1,0-0.2,0-0.3V414c0-0.7,0.2-1.2,0.6-1.6
				c0.4-0.4,0.8-0.6,1.4-0.6s1,0.2,1.4,0.6c0.4,0.4,0.6,0.9,0.6,1.7v7.3c0,2.6-0.9,4.8-2.8,6.6c-1.7,1.7-3.9,2.6-6.6,2.8
				L-87.6,430.7L-87.6,430.7z"/>
			<path class="st4" d="M-65.2,411.8c0.5,0,1,0.2,1.4,0.6c0.4,0.4,0.6,0.8,0.6,1.4c0,0.5-0.2,1-0.6,1.4c-0.4,0.4-0.8,0.6-1.4,0.6h0
				c-1.5,0-2.9,0.5-4,1.6c-1,1-1.5,2.2-1.6,3.6c0,0.1,0,0.2,0,0.3v7.3c0,0.7-0.2,1.2-0.6,1.6c-0.4,0.4-0.8,0.6-1.4,0.6
				c-0.5,0-1-0.2-1.4-0.6c-0.4-0.4-0.6-0.9-0.6-1.7v-7.3c0-2.6,0.9-4.8,2.8-6.6C-70.1,412.9-67.9,411.9-65.2,411.8z"/>
			<path class="st4" d="M-45.2,411.8V409c0-1.3,0.5-2.4,1.4-3.3c0.9-0.9,2-1.4,3.3-1.4c0.5,0,1,0.2,1.3,0.5c0.4,0.4,0.6,0.8,0.6,1.3
				c0,0.5-0.2,1-0.6,1.3c-0.4,0.4-0.8,0.6-1.3,0.6c-0.3,0-0.5,0.1-0.7,0.3c-0.2,0.2-0.3,0.4-0.3,0.7v2.8h2.2c0.5,0,1,0.2,1.4,0.6
				c0.4,0.4,0.6,0.8,0.6,1.4c0,0.5-0.2,1-0.6,1.4c-0.4,0.4-0.8,0.6-1.4,0.6h-2.1v13.1c0,0.5-0.2,1-0.6,1.4c-0.4,0.4-0.8,0.6-1.4,0.6
				c-0.5,0-1-0.2-1.4-0.6c-0.4-0.4-0.6-0.8-0.6-1.4v-13.1h-2.2c-0.5,0-1-0.2-1.4-0.6c-0.4-0.4-0.6-0.8-0.6-1.4c0-0.5,0.2-1,0.6-1.4
				c0.4-0.4,0.8-0.6,1.4-0.6H-45.2z"/>
			<path class="st4" d="M-18.2,428.8c0,0.7-0.2,1.2-0.6,1.5c-0.4,0.3-0.8,0.4-1.4,0.4s-1-0.1-1.4-0.4c-0.4-0.3-0.6-0.7-0.6-1.4
				c-1.6,1.2-3.5,1.8-5.6,1.8c-2.6,0-4.8-0.9-6.7-2.8c-1.8-1.8-2.8-4.1-2.8-6.7c0-2.6,0.9-4.8,2.8-6.7c1.8-1.8,4.1-2.8,6.7-2.8
				c2.6,0,4.8,0.9,6.7,2.8c1.8,1.8,2.7,4,2.8,6.6V428.8z M-23.6,417.3c-1.1-1.1-2.4-1.6-4-1.6s-2.9,0.5-4,1.6
				c-1.1,1.1-1.6,2.4-1.6,4c0,1.5,0.5,2.9,1.6,4c1.1,1.1,2.4,1.6,4,1.6s2.9-0.5,4-1.6c0.9-0.9,1.5-2,1.6-3.3v-0.7c0-0.1,0-0.2,0-0.3
				C-22.1,419.5-22.6,418.3-23.6,417.3z"/>
			<path class="st4" d="M2.3,430.7c-0.5,0-1-0.2-1.4-0.6c-0.4-0.4-0.6-0.9-0.6-1.6v-7.3c0-0.1,0-0.2,0-0.3c-0.1-1.4-0.6-2.6-1.6-3.6
				c-1.1-1.1-2.4-1.6-4-1.6h-0.1c-1.5,0-2.9,0.5-4,1.6c-1,1-1.5,2.2-1.6,3.6c0,0.1,0,0.2,0,0.3v7.3c0,0.7-0.2,1.2-0.6,1.6
				c-0.4,0.4-0.8,0.6-1.4,0.6s-1-0.2-1.4-0.6c-0.4-0.4-0.6-0.9-0.6-1.7v-7.3c0-2.6,0.9-4.8,2.8-6.6c1.7-1.7,3.9-2.6,6.6-2.8h0.3
				c2.7,0.1,4.8,1.1,6.6,2.8c0.3,0.3,0.6,0.6,0.8,1c0.2-0.3,0.5-0.6,0.8-1c1.7-1.7,3.9-2.6,6.6-2.8H10c2.7,0.1,4.8,1.1,6.6,2.8
				c1.8,1.8,2.7,4,2.8,6.6v7.3c0,0.7-0.2,1.3-0.6,1.7c-0.4,0.4-0.8,0.6-1.4,0.6c-0.5,0-1-0.2-1.4-0.6c-0.4-0.4-0.6-0.9-0.6-1.6v-7.3
				c0-0.1,0-0.2,0-0.3c-0.1-1.4-0.6-2.6-1.6-3.6c-1.1-1.1-2.4-1.6-4-1.6H9.8c-1.5,0-2.9,0.5-4,1.6c-1,1-1.5,2.2-1.6,3.6
				c0,0.1,0,0.2,0,0.3v7.3c0,0.7-0.2,1.2-0.6,1.6C3.3,430.5,2.9,430.7,2.3,430.7L2.3,430.7z"/>
			<path class="st4" d="M24.7,410c-0.5,0-1-0.2-1.4-0.6c-0.4-0.4-0.6-0.8-0.6-1.4c0-0.5,0.2-1,0.6-1.4c0.4-0.4,0.8-0.6,1.4-0.6
				c0.5,0,1,0.2,1.4,0.6c0.4,0.4,0.6,0.8,0.6,1.4c0,0.5-0.2,1-0.6,1.4C25.7,409.8,25.2,410,24.7,410z M24.7,430.7
				c-0.5,0-1-0.2-1.4-0.6c-0.4-0.4-0.6-0.8-0.6-1.4v-15.1c0-0.5,0.2-1,0.6-1.4c0.4-0.4,0.8-0.6,1.4-0.6c0.5,0,1,0.2,1.4,0.6
				c0.4,0.4,0.6,0.8,0.6,1.4v15.1c0,0.5-0.2,1-0.6,1.4C25.7,430.5,25.2,430.7,24.7,430.7z"/>
			<path class="st4" d="M33.2,406.8c0.4,0.4,0.6,0.8,0.6,1.4v20.6c0,0.5-0.2,1-0.6,1.4c-0.4,0.4-0.8,0.6-1.4,0.6
				c-0.5,0-1-0.2-1.4-0.6c-0.4-0.4-0.6-0.8-0.6-1.4v-20.6c0-0.5,0.2-1,0.6-1.4c0.4-0.4,0.8-0.6,1.4-0.6
				C32.4,406.3,32.8,406.5,33.2,406.8z"/>
			<path class="st4" d="M37.4,414.6c-0.2-0.3-0.2-0.6-0.2-0.9c0-0.5,0.2-1,0.5-1.3c0.4-0.4,0.8-0.5,1.3-0.5c0.5,0,1,0.2,1.3,0.5
				c0.2,0.2,0.3,0.4,0.4,0.7l5.8,11.5l5.8-11.5c0.1-0.3,0.2-0.5,0.5-0.7c0.4-0.4,0.8-0.5,1.3-0.5c0.5,0,1,0.2,1.3,0.5
				c0.4,0.4,0.6,0.8,0.6,1.3c0,0.3-0.1,0.6-0.2,0.8L44.6,437c-0.1,0.3-0.3,0.5-0.5,0.7c-0.4,0.4-0.8,0.6-1.3,0.6
				c-0.5,0-1-0.2-1.3-0.6c-0.4-0.4-0.5-0.8-0.5-1.3c0-0.4,0.1-0.8,0.2-1.1l3.3-6.5L37.4,414.6z"/>
		</g>
		<g>
			<path class="st4" d="M65.5,404.4c0.4,0.4,0.5,0.8,0.5,1.3v15.5c0,0.5-0.2,1-0.5,1.3c-0.4,0.4-0.8,0.6-1.3,0.6
				c-0.5,0-1-0.2-1.3-0.6c-0.4-0.4-0.6-0.8-0.6-1.3v-15.5c0-0.5,0.2-1,0.6-1.3c0.4-0.4,0.8-0.6,1.3-0.6
				C64.7,403.9,65.2,404.1,65.5,404.4z M65.5,427.2c0.4,0.4,0.5,0.8,0.5,1.3c0,0.5-0.2,1-0.5,1.3c-0.4,0.4-0.8,0.6-1.3,0.6
				c-0.5,0-1-0.2-1.3-0.6c-0.4-0.4-0.6-0.8-0.6-1.3c0-0.5,0.2-1,0.6-1.3c0.4-0.4,0.8-0.6,1.3-0.6C64.7,426.7,65.2,426.9,65.5,427.2z
				"/>
		</g>
	</g>
</g>
</svg>
